<svg xmlns="http://www.w3.org/2000/svg" xmlns:xlink="http://www.w3.org/1999/xlink" viewBox="0 0 816.4 165.6">
    <path d="M123.8 51.34c7.03-13.32 12.08-27.01 16.76-41.37-.83.5-1.29.74-1.71 1.03-10.68 7.46-21.17 15.14-30.56 24.22-5.23 5.06-9.18 10.85-10.22 18.25-.06.46-.06.93-.13 1.94l27.04-24.96.51.48-33.5 38.42.32.69 30.14-5.16c.05.07.09.14.14.21-1.95.84-3.84 1.95-5.87 2.49l-26.83 6.87c-1.5.4-3.05 1.2-4.19 2.24-2.7 2.46-5.18 5.18-8.08 8.15l36.25-6.39c-.34.48-.59.98-.98 1.35l-12.57 12.14c-2.51 2.41-5.47 2.83-8.71 1.85-2.52-.76-4.99-1.73-7.55-2.27-8.06-1.69-14.7 1.27-20.33 6.79l-27.71 27.5c-2.57 2.55-5.24 5.01-8.04 7.68l-4.9-5.56c2.92-4.34 6.2-8.87 9.09-13.64 1.72-2.83 2.71-6.1 4.25-9.05 2.1-4.02 4.14-8.12 6.68-11.86 8.5-12.51 18.67-23.64 29-34.64l13.25-14.48c.57-.62.93-1.43 1.39-2.16l.95.54v22.83l.67.25c2.38-2.74 4.81-5.44 7.09-8.27.4-.49.24-1.51.19-2.27-.42-6.55-.41-13.09.98-19.54.24-1.11.78-2.35 1.57-3.12C111.97 19.06 127.65 8.43 145.42.93c.7-.3 1.43-.52 2.64-.96l-1.94 11.26c-1.98 10.45-5.31 20.49-9.15 30.38-2.25 5.79-6.47 8.95-13.14 9.71zm-86.66 66.27c3.31-3.13 6.41-6.24 9.71-9.14 4.95-4.36 10.16-8.44 15.04-12.88 6.54-5.96 7.06-13.57 5.44-22C54.28 86.43 44 100.76 37.15 117.61zM0 105.18c19.9 29.17 45.92 50.14 80.03 60.42-21.1-3.75-39.09-13.8-55.76-28-1.31 1.53-2.44 3.18-3.9 4.48-3.86 3.44-7.81 6.79-11.84 10.02-1.09.87-2.86 2.05-3.96.57-.66-.89-.38-2.89.11-4.14 1.65-4.18 4.62-7.47 7.9-10.46 1.94-1.77 3.98-3.43 6.32-5.44-6.94-8.65-13.73-17.49-18.92-27.45zm118.5 2.78c.11 6.3-.83 12.41-3.85 18.09-.41.77-.94 1.49-1.41 2.23-.17-.06-.34-.13-.51-.19.09-.49.08-1.02.27-1.46 5-11.39 3.59-22.62-.88-33.74-1.41-3.5-1.53-3.45 1.94-6.4 1.65 3.8 3.48 7.39 4.79 11.15 3.39 9.73 4.28 19.56.24 29.37-2.38 5.78-6.51 10.21-11.65 12.47 10.74-8.05 13.17-19 11.06-31.52zM74.58 48.55c-.96 1.44-2.02 1.73-3.73.99-7.94-3.43-16.2-5.65-24.84-6.4-8.2-.72-16.13.31-23.99 3.54 8.64-7.95 39.08-6.77 52.56 1.87zm-41.77-1.79c10.87-3.13 21.31-1.31 31.55 2.68-10.43-1.76-20.76-4.7-31.55-2.68zm51.66 92.44c-11.3-.31-21.14-4.99-30.73-10.44 9.84 4.7 19.96 8.52 30.73 10.44zM203.32 60c2.78 0 4.97.78 6.57 2.34s2.41 3.73 2.41 6.51a17.7 17.7 0 0 1-.13 2.15c-.09.74-.26 1.37-.52 1.89l-3.78-.46c-1.39-.13-3.04-.2-4.95-.2a67.27 67.27 0 0 0-11.72 1.04c-3.91.7-7.64 1.26-11.2 1.69-3.91 9.2-7.12 17.84-9.63 25.91-2.52 8.07-4.47 16.06-5.86 23.96-2.95-.7-5.56-1.95-7.81-3.78-2.26-1.82-4.38-4.38-6.38-7.68l2.21-5.01c.87-1.95 1.91-4.43 3.12-7.42L160.01 90l6.05-15.43c-3.65-1.21-6.03-3.34-7.16-6.38.43-.43 1.65-.93 3.65-1.5 2-.56 4.43-1.19 7.29-1.89l3.39-9.05 2.6-7.55a183.82 183.82 0 0 0 2.15-7.03c.65-2.3 1.24-4.75 1.76-7.36h-.65c-3.3 0-5.97-.78-8.01-2.35s-3.06-3.62-3.06-6.15c0-.7.11-1.53.33-2.49s.5-1.79.85-2.48a62.15 62.15 0 0 0 4.88.19h21.68c4.77 0 9.09-.21 12.95-.62l9.96-1.17c2.78-.36 4.9-.55 6.38-.55 2 0 3.78 1.04 5.34 3.12s2.78 5.04 3.65 8.85c-2.78-.35-5.01-.52-6.71-.52h-4.49c-4.43 0-8.49.2-12.17.58-3.69.39-7.18.84-10.48 1.36-.52.78-1.11 1.77-1.76 2.98s-1.5 2.92-2.54 5.12l-3.97 8.62-6.05 13.49c3.39-.52 6.62-.95 9.7-1.3s5.66-.52 7.75-.52zm15.89 45.95c0-3.82.91-9.18 2.73-16.08s4.38-14.95 7.68-24.15c5.38-14.67 10.44-26.89 15.17-36.65s9.35-17.38 13.87-22.85c1.04.17 2.32.61 3.84 1.3 1.52.7 3.02 1.45 4.49 2.28 1.48.83 2.8 1.67 3.97 2.54s1.93 1.56 2.28 2.08C266.47 22.41 260.52 31 255.4 40.2s-9.81 19.75-14.06 31.64c-3.65 10.24-6.42 19.46-8.33 27.67-1.91 8.2-2.86 15.04-2.86 20.51v2.73c0 .35.04.69.13 1.04-1.22-.17-2.26-.48-3.12-.91-.87-.44-1.43-.96-1.69-1.56-.17-.44-.65-1.06-1.43-1.89s-1.48-1.45-2.08-1.89c-.78-.52-1.43-1.89-1.95-4.1s-.78-4.71-.78-7.49zm66.26 5.47a10.06 10.06 0 0 1-3.32-5.21c-.57-2.08-.85-3.86-.85-5.34 0-1.82.22-3.38.65-4.69-.35 0-1.13.69-2.34 2.08l-3.97 4.93-4.23 5.58-3.12 4.02c-1.13 1.21-2.19 2.16-3.19 2.86-1 .69-1.8 1.08-2.41 1.17-1.39 0-2.84-.24-4.36-.72s-2.95-1.16-4.3-2.03a15.1 15.1 0 0 1-3.52-3.14c-1-1.22-1.67-2.62-2.02-4.19l.2-5.99c.13-1.56.41-3.25.85-5.08.78-3.3 1.93-7.03 3.45-11.2s3.28-8.27 5.27-12.3c2-4.04 4.23-7.81 6.71-11.33 2.47-3.52 5.1-6.27 7.88-8.27.78 0 1.69.07 2.73.2a17.54 17.54 0 0 1 3.19.72c1.08.35 2.13.76 3.12 1.24 1 .48 1.84 1.11 2.54 1.89-.78.87-2.76 3.78-5.92 8.72-3.17 4.95-6.71 12.07-10.61 21.35-.44.96-.96 2.34-1.56 4.17-.61 1.82-1.22 3.73-1.82 5.73-.61 2-1.11 3.95-1.5 5.86s-.59 3.43-.59 4.56c0 .7.11 1.22.33 1.56.22.35.41.61.59.78 1.3-.52 2.95-1.95 4.95-4.3 2-2.34 4.77-5.94 8.33-10.81l3.06-4.17c1.17-1.56 2.36-3.23 3.58-5.01 1.21-1.78 2.36-3.62 3.45-5.53 1.08-1.91 1.97-3.82 2.67-5.73.35-1.04.8-2.28 1.37-3.71.56-1.43 1.26-2.93 2.08-4.49s1.78-3.14 2.86-4.75c1.08-1.6 2.36-3.1 3.84-4.49 1.13 0 2.34.13 3.65.39 1.3.26 2.54.58 3.71.98 1.17.39 2.19.83 3.06 1.3.87.48 1.52.98 1.95 1.5-1.56 3.82-3.3 7.6-5.21 11.33s-3.69 7.4-5.34 11-3.04 7.18-4.17 10.74-1.69 7.03-1.69 10.42c0 1.82.15 3.41.46 4.75.3 1.35.63 2.47.98 3.38s.67 1.67.98 2.28c.3.61.46 1.13.46 1.56 0 .09-.09.22-.26.39-.09.09-.17.13-.26.13-.61 0-1.39-.13-2.34-.39-.96-.26-2.02-.63-3.19-1.11s-2.34-1.02-3.52-1.63a36.67 36.67 0 0 1-3.32-1.95zm74.87-51.03c-.35 5.38-1.3 10-2.87 13.87-1.56 3.86-3.8 7.25-6.71 10.16s-6.45 5.53-10.61 7.88-9.03 4.6-14.58 6.77a23.25 23.25 0 0 1-.06 1.63c-.04.57-.06 1.15-.06 1.76a25.51 25.51 0 0 0 .26 3.52 13.76 13.76 0 0 0 .91 3.38c.43 1.04 1.04 1.89 1.82 2.54s1.78.98 2.99.98c2.34 0 4.64-.52 6.9-1.56s4.4-2.32 6.45-3.84c2.04-1.52 3.95-3.17 5.73-4.95l4.75-4.88c.87.78 1.61 1.52 2.21 2.21-3.91 5.21-8.18 9.53-12.82 12.96s-9.05 5.62-13.21 6.57c-5.99-.7-10.66-2.89-14-6.57-3.34-3.69-5.01-8.14-5.01-13.34 0-3.56.5-7.18 1.5-10.87s2.39-7.25 4.17-10.68a61.44 61.44 0 0 1 6.25-9.7c2.39-3.04 4.95-5.68 7.68-7.94s5.55-4.04 8.46-5.34 5.79-1.95 8.66-1.95c3.99.52 7.72 3 11.2 7.42zm-8.99 4.29c-2.34.35-4.78 1.3-7.29 2.86-2.52 1.56-4.88 3.65-7.1 6.25-2.21 2.6-4.23 5.64-6.05 9.11s-3.25 7.21-4.3 11.2c6.94-3.47 12.71-7.75 17.32-12.82 4.6-5.08 7.07-10.61 7.42-16.6zm36.07-13.54c2.26.7 4.38 2.24 6.38 4.62 2 2.39 3.47 5.01 4.43 7.88-.96 2.34-2.43 5.17-4.43 8.46l-5.99 10.09c-2 3.43-3.8 6.68-5.4 9.76-1.61 3.08-2.54 5.62-2.8 7.62 1.39-1.47 2.93-3.19 4.62-5.14l4.95-5.86 4.49-5.34c1.39-1.6 2.47-2.8 3.25-3.58l5.86-6.05a90.95 90.95 0 0 1 7.1-6.51c2.47-2.04 4.97-3.78 7.49-5.21s4.82-2.15 6.9-2.15c2.26 0 4.14.76 5.66 2.28s2.71 3.1 3.58 4.75c0 .17-.33.41-.98.72s-1.58 1.15-2.8 2.54c-1.22 1.56-2.58 3.71-4.1 6.45-1.52 2.73-2.99 5.69-4.43 8.85-1.43 3.17-2.63 6.4-3.58 9.7-.96 3.3-1.43 6.29-1.43 8.98 0 2.17.28 3.56.85 4.17.56.61 1.37.91 2.41.91.95 0 1.95-.22 2.99-.65s1.87-.65 2.47-.65c.35.17.63.54.85 1.11.21.57.33 1.06.33 1.5-.7.61-1.52 1.22-2.47 1.82a32.26 32.26 0 0 1-3 1.69c-1.04.52-2.06.95-3.06 1.3s-1.89.52-2.67.52c-2.52 0-4.58-.37-6.18-1.11-1.61-.74-2.86-1.71-3.78-2.93-.91-1.21-1.54-2.67-1.89-4.36s-.52-3.49-.52-5.4c0-1.04.09-2.21.26-3.52.17-1.3.52-2.84 1.04-4.62s1.26-3.91 2.21-6.38 2.17-5.45 3.65-8.92c-.18 0-1.35.61-3.52 1.82-2.17 1.22-4.51 3.08-7.03 5.6-4.08 3.91-7.75 7.77-11 11.59s-6.58 8.07-9.96 12.76c-1.91 2.69-3.58 4.97-5.01 6.83-1.43 1.87-2.67 3.1-3.71 3.71-1.82-1.04-3.17-2.5-4.04-4.36-.87-1.87-1.52-3.8-1.95-5.79 0-1.65.24-3.73.72-6.25s1.13-5.32 1.95-8.4 1.84-6.31 3.06-9.7a161.24 161.24 0 0 1 4.04-10.16c3.3-7.64 6.31-13.63 9.05-17.97 2.73-4.34 4.45-6.68 5.14-7.03zm56.89 13.28c-.44-.52-.83-1.63-1.17-3.32-.35-1.69-.52-3.15-.52-4.36 2.26.35 4.43.52 6.51.52h5.73l4.23-7.66 4.43-6.95 4.04-5.34c1.26-1.46 2.23-2.4 2.93-2.83.87 0 1.97.15 3.32.46 1.34.31 2.71.7 4.1 1.17l3.78 1.5c1.13.52 1.91 1.04 2.34 1.56-2.6 3.28-4.84 6.31-6.71 9.12-1.87 2.8-3.89 6.01-6.05 9.63h5.27c1.78 0 3.58-.13 5.4-.39.43.44.78.98 1.04 1.63a5.38 5.38 0 0 1 .39 2.02c-4.25 1.65-9.42 2.47-15.49 2.47-2.17 4.18-4.1 8.33-5.79 12.47s-3.12 8.11-4.3 11.94c-1.17 3.83-2.08 7.44-2.73 10.83s-.98 6.44-.98 9.14c0 3.83 1.43 5.96 4.3 6.4 2.6-.35 5.08-1 7.42-1.95s4.43-2.17 6.25-3.65c.52.78.82 1.43.91 1.95-.52.78-1.41 1.68-2.67 2.72-1.26 1.03-2.63 2.05-4.1 3.04-1.48.99-2.91 1.83-4.3 2.52s-2.43 1.08-3.12 1.16c-2.17 0-4.34-.44-6.51-1.3-2.17-.87-4.15-1.96-5.92-3.26-1.78-1.31-3.23-2.76-4.36-4.37s-1.69-3.19-1.69-4.76c0-2.08.28-4.71.85-7.88.56-3.17 1.37-6.63 2.41-10.36s2.26-7.65 3.65-11.73 2.91-8.12 4.56-12.12h-7.42zM602.5 42.55c0 4.17-.93 8.09-2.8 11.78s-4.45 6.99-7.75 9.89c-3.3 2.91-7.16 5.36-11.59 7.36s-9.24 3.34-14.45 4.04c1.3 3.91 2.88 7.92 4.75 12.04s3.88 8.09 6.05 11.91 4.43 7.34 6.77 10.55 4.64 5.86 6.9 7.94c-.44.87-1.06 1.74-1.89 2.6-.83.87-1.78 1.67-2.86 2.41-1.09.74-2.21 1.34-3.38 1.82s-2.28.72-3.32.72c-1.91 0-3.73-.91-5.47-2.73s-3.5-4.71-5.27-8.66c-1.78-3.95-3.65-9.07-5.6-15.36s-4.1-13.87-6.44-22.72h-2.86c-.96 0-1.69-.08-2.21-.26-.61-.35-1.26-.95-1.95-1.82-2.34 5.04-4.43 9.76-6.25 14.19s-3.45 8.7-4.88 12.82a213.78 213.78 0 0 0-3.78 11.98 147.41 147.41 0 0 0-2.8 11.78c-2.95-.7-5.51-1.95-7.68-3.78-2.17-1.82-4.21-4.38-6.12-7.68.35-.78.72-1.54 1.11-2.28s.89-1.78 1.5-3.12l2.28-5.14 3.65-8.33 5.47-12.76 7.75-18.36 3.58-8.46a142.41 142.41 0 0 0 2.67-6.97 131.31 131.31 0 0 0 2.15-6.64c.65-2.21 1.32-4.75 2.02-7.62-3.99 1.39-7.7 2.93-11.13 4.62s-6.27 3.5-8.53 5.4c-.78-.52-1.58-1.3-2.41-2.34s-1.58-2.19-2.28-3.45-1.3-2.54-1.82-3.84-.83-2.47-.91-3.52c2.6-1.74 5.79-3.34 9.57-4.82 3.78-1.47 7.79-2.75 12.04-3.84 4.25-1.08 8.59-1.93 13.02-2.54s8.55-.91 12.37-.91c10.42 0 18.49 2.15 24.22 6.45s8.59 10.18 8.59 17.64zm-31.77-10.94c-.61.78-1.56 2.34-2.86 4.69a334.9 334.9 0 0 0-4.49 8.4l-5.34 10.61-5.4 11.33c6.51 0 12.5-.61 17.97-1.82s10.2-2.93 14.19-5.14 7.1-4.82 9.31-7.81 3.32-6.31 3.32-9.96c0-4.34-1.56-7.66-4.69-9.96-3.12-2.3-7.94-3.45-14.45-3.45a50.5 50.5 0 0 0-4.43.2l-4.69.46 1.56 2.47z"/>
    <use xlink:href="#B"/>
    <path d="M624.24 153.08c0-.52.18-1 .52-1.43a15.42 15.42 0 0 1 1.17-1.3l2.67 2.21c.74.52 1.43.95 2.08 1.3a5.76 5.76 0 0 0 2.02.65c.7.08 1.52.13 2.47.13 4.51 0 8.81-1.19 12.89-3.58s7.92-5.84 11.52-10.35 6.88-10.03 9.83-16.54 5.55-13.89 7.81-22.13c-1.04 1.04-2.32 2.19-3.84 3.45a64.81 64.81 0 0 1-4.75 3.58 89.66 89.66 0 0 1-4.88 3.12c-1.61.96-2.97 1.65-4.1 2.08-1.48-.26-2.84-.89-4.1-1.89s-2.37-2.23-3.32-3.71c-.96-1.47-1.69-3.14-2.21-5.01s-.78-3.84-.78-5.92c0-3.38.63-6.86 1.89-10.42s2.93-7.05 5.01-10.48 4.53-6.66 7.36-9.7c2.82-3.04 5.81-5.68 8.98-7.94s6.38-4.06 9.63-5.4 6.44-2.02 9.57-2.02 5.32.63 6.83 1.89c1.52 1.26 2.62 3.41 3.32 6.44-.96-.52-2.17-.78-3.65-.78-2.08 0-4.49.83-7.23 2.47-2.73 1.65-5.51 3.8-8.33 6.44-2.82 2.65-5.62 5.69-8.4 9.11-2.78 3.43-5.23 6.92-7.36 10.48s-3.86 7.03-5.21 10.42c-1.35 3.38-2.02 6.42-2.02 9.11 0 .61.04.98.13 1.11.08.13.22.2.39.2.78 0 1.84-.43 3.19-1.3 1.34-.87 2.86-1.97 4.56-3.32 1.69-1.34 3.45-2.91 5.27-4.69s3.56-3.58 5.21-5.4c3.73-4.17 7.14-8.83 10.22-14 3.08-5.16 5.53-10.18 7.36-15.04 2.34.17 4.43.57 6.25 1.17 1.82.61 3.08 1.26 3.78 1.95-2.95 6.77-5.32 12.46-7.1 17.06l-4.62 12.24-6.58 17.12c-2.04 5.16-4.12 9.94-6.25 14.32s-4.43 8.46-6.9 12.24-5.27 7.4-8.4 10.87c-1.48 1.65-3.15 3.1-5.01 4.36-1.87 1.26-3.78 2.32-5.73 3.19s-3.86 1.52-5.73 1.95-3.58.65-5.14.65c-2.08 0-4.21-.24-6.38-.72s-4.19-1.13-6.05-1.95c-1.87-.83-3.49-1.78-4.88-2.86-1.39-1.09-2.39-2.24-3-3.45z"/>
    <use xlink:href="#B" x="111.18"/>
    <path d="M801.56 113.51c-.96 1.47-2.45 2.67-4.49 3.58s-3.97 1.45-5.79 1.63c-1.48-1.74-3.12-4.1-4.95-7.1-1.82-2.99-3.56-6.49-5.21-10.48-4.43 3.99-8.85 7.62-13.28 10.87s-8.55 6.01-12.37 8.27c-.96-.17-1.74-.7-2.34-1.56-.61-.87-.96-2-1.04-3.38 1.74-.96 3.8-2.21 6.18-3.78a133.2 133.2 0 0 0 7.29-5.14c2.47-1.87 4.86-3.82 7.16-5.86s4.27-4.01 5.92-5.92a155.16 155.16 0 0 1-4.1-10.74 160.26 160.26 0 0 1-3.25-10.68c-.91-3.43-1.63-6.55-2.15-9.38-.52-2.82-.78-5.1-.78-6.83 0-1.21.15-2.02.46-2.41.3-.39 1.02-.59 2.15-.59.87 0 1.93.09 3.19.26 1.26.18 2.54.39 3.84.65s2.6.54 3.91.85c1.3.3 2.43.63 3.39.98-.18.96-.26 1.78-.26 2.47v2.99c0 3.38.28 6.83.85 10.35.56 3.52 1.5 7.31 2.8 11.39 3.56-4.08 6.86-8.61 9.89-13.61 3.04-4.99 6.12-10.96 9.24-17.9 2.17.44 4.04 1.06 5.6 1.89s2.56 1.71 2.99 2.67c-.96 3.99-3.65 9.03-8.07 15.1-4.43 6.08-10.07 12.54-16.92 19.4 1.21 3.3 2.69 6.79 4.43 10.48a322.88 322.88 0 0 0 5.73 11.52z"/>
    <defs>
        <path id="B" d="M644.55 60.39c-.35 5.38-1.3 10-2.86 13.87-1.56 3.86-3.8 7.25-6.71 10.16s-6.45 5.53-10.61 7.88-9.03 4.6-14.58 6.77a23.25 23.25 0 0 1-.06 1.63c-.04.57-.07 1.15-.07 1.76a24.04 24.04 0 0 0 .26 3.52 13.76 13.76 0 0 0 .91 3.38c.43 1.04 1.04 1.89 1.82 2.54s1.78.98 3 .98c2.34 0 4.64-.52 6.9-1.56s4.4-2.32 6.44-3.84 3.95-3.17 5.73-4.95l4.75-4.88c.87.78 1.61 1.52 2.21 2.21-3.91 5.21-8.18 9.53-12.82 12.96s-9.05 5.62-13.21 6.57c-5.99-.7-10.66-2.89-14-6.57-3.34-3.69-5.01-8.14-5.01-13.34 0-3.56.5-7.18 1.5-10.87s2.39-7.25 4.17-10.68a61.44 61.44 0 0 1 6.25-9.7c2.39-3.04 4.95-5.68 7.68-7.94s5.55-4.04 8.46-5.34 5.79-1.95 8.66-1.95c3.99.52 7.72 3 11.2 7.42zm-8.98 4.29c-2.34.35-4.78 1.3-7.29 2.86-2.52 1.56-4.88 3.65-7.1 6.25-2.21 2.6-4.23 5.64-6.05 9.11s-3.25 7.21-4.3 11.2c6.94-3.47 12.71-7.75 17.32-12.82 4.6-5.08 7.07-10.61 7.42-16.6z"/>
    </defs>
</svg>